<?xml version="1.0" encoding="UTF-8" standalone="no"?>
<svg
   xmlns:dc="http://purl.org/dc/elements/1.1/"
   xmlns:cc="http://creativecommons.org/ns#"
   xmlns:rdf="http://www.w3.org/1999/02/22-rdf-syntax-ns#"
   xmlns:svg="http://www.w3.org/2000/svg"
   xmlns="http://www.w3.org/2000/svg"
   viewBox="0 0 1984.128 407.00496"
   height="407.00497"
   width="1984.1281"
   xml:space="preserve"
   version="1.1"
   id="svg3336"><metadata
     id="metadata3342"><rdf:RDF><cc:Work
         rdf:about=""><dc:format>image/svg+xml</dc:format><dc:type
           rdf:resource="http://purl.org/dc/dcmitype/StillImage" /><dc:title></dc:title></cc:Work></rdf:RDF></metadata><defs
     id="defs3340"><clipPath
       id="clipPath3350"
       clipPathUnits="userSpaceOnUse"><path
         id="path3352"
         d="m 0,116.204 595.275,0 0,701.861 -595.275,0 0,-701.861 z" /></clipPath><clipPath
       id="clipPath3380"
       clipPathUnits="userSpaceOnUse"><path
         id="path3382"
         d="m 39.685,760.205 198.426,0 0,40.701 -198.426,0 0,-40.701 z" /></clipPath><clipPath
       id="clipPath3430"
       clipPathUnits="userSpaceOnUse"><path
         id="path3432"
         d="m 39.697,760.205 198.413,0 0,40.701 -198.413,0 0,-40.701 z" /></clipPath><clipPath
       id="clipPath3446"
       clipPathUnits="userSpaceOnUse"><path
         id="path3448"
         d="m 39.685,760.205 198.426,0 0,40.701 -198.426,0 0,-40.701 z" /></clipPath><clipPath
       id="clipPath3462"
       clipPathUnits="userSpaceOnUse"><path
         id="path3464"
         d="m 39.697,760.205 198.413,0 0,40.701 -198.413,0 0,-40.701 z" /></clipPath></defs><g
     transform="matrix(1.25,0,0,-1.25,-49.62125,1357.2612)"
     id="g3344"><g
       transform="matrix(8,0,0,8,1327.7226,960.5626)"
       id="g3368"><path
         id="path3370"
         style="fill:#231f20;fill-opacity:1;fill-rule:nonzero;stroke:none"
         d="m 0,0 -3.028,0 0,0.929 7.156,0 0,-0.929 -3.027,0 0,-11.491 -1.101,0 L 0,0 Z" /></g><g
       transform="matrix(8,0,0,8,1420.4666,902.2146)"
       id="g3372"><path
         id="path3374"
         style="fill:#231f20;fill-opacity:1;fill-rule:nonzero;stroke:none"
         d="m 0,0 -2.116,7.018 -0.034,0 L -4.249,0 0,0 Z m -1.428,8.222 3.871,-12.419 -1.153,0 -0.997,3.268 -4.869,0 -0.98,-3.268 -1.101,0 3.922,12.419 1.307,0 z" /></g><g
       transform="matrix(8,0,0,8,-277.879,-5321.435)"
       id="g3376"><g
         clip-path="url(#clipPath3380)"
         id="g3378"><g
           transform="translate(218.4503,780.7085)"
           id="g3384"><path
             id="path3386"
             style="fill:#231f20;fill-opacity:1;fill-rule:nonzero;stroke:none"
             d="m 0,0 1.789,0 c 1.651,0 2.425,0.43 2.425,2.511 0,1.703 -0.67,2.03 -1.96,2.03 L 0,4.541 0,0 Z m 0,-0.929 0,-6.021 -1.101,0 0,12.42 3.423,0 c 2.391,0 2.993,-0.791 2.993,-2.976 0,-1.548 -0.258,-2.58 -1.926,-2.958 l 0,-0.035 c 1.737,-0.361 1.84,-0.568 1.84,-5.006 0,-0.481 0.086,-0.963 0.121,-1.445 l -1.05,0 c -0.103,0.362 -0.154,2.426 -0.172,3.097 -0.017,0.533 0.345,2.924 -2.047,2.924 l -2.081,0 z" /></g><path
           id="path3388"
           style="fill:#231f20;fill-opacity:1;fill-rule:nonzero;stroke:none"
           d="m 228.788,773.759 -1.101,0 0,12.42 1.101,0 0,-12.42 z" /><g
           transform="translate(232.8638,786.1785)"
           id="g3390"><path
             id="path3392"
             style="fill:#231f20;fill-opacity:1;fill-rule:nonzero;stroke:none"
             d="m 0,0 5.246,0 0,-0.929 -4.145,0 0,-4.644 3.853,0 0,-0.929 -3.853,0 0,-5.918 L 0,-12.42 0,0 Z" /></g><g
           transform="translate(102.073,786.1785)"
           id="g3394"><path
             id="path3396"
             style="fill:#231f20;fill-opacity:1;fill-rule:nonzero;stroke:none"
             d="m 0,0 2.666,0 1.617,-8.721 0.034,0 L 6.278,0 9.34,0 l 1.858,-8.721 0.034,0 1.549,8.721 2.545,0 -2.752,-12.42 -2.872,0 -1.944,9.083 -0.035,0 -2.15,-9.083 -2.821,0 L 0,0 Z" /></g><g
           transform="translate(119.3245,773.759)"
           id="g3398"><path
             id="path3400"
             style="fill:#231f20;fill-opacity:1;fill-rule:nonzero;stroke:none"
             d="m 0,0 0,12.42 6.777,0 0,-1.91 -4.18,0 0,-3.062 3.854,0 0,-1.909 -3.854,0 0,-3.63 4.318,0 L 6.915,0 0,0 Z" /></g><g
           transform="translate(132.1387,773.5526)"
           id="g3402"><path
             id="path3404"
             style="fill:#231f20;fill-opacity:1;fill-rule:nonzero;stroke:none"
             d="m 0,0 c -3.216,0 -3.819,1.892 -3.681,4.042 l 2.597,0 c 0,-1.187 0.052,-2.184 1.48,-2.184 0.877,0 1.307,0.568 1.307,1.41 0,2.237 -5.229,2.374 -5.229,6.072 0,1.944 0.929,3.492 4.094,3.492 2.528,0 3.784,-1.135 3.612,-3.732 l -2.529,0 c 0,0.929 -0.154,1.875 -1.204,1.875 -0.842,0 -1.341,-0.465 -1.341,-1.325 0,-2.357 5.229,-2.15 5.229,-6.055 C 4.335,0.378 1.978,0 0,0" /></g><g
           transform="translate(146.5873,786.1785)"
           id="g3406"><path
             id="path3408"
             style="fill:#231f20;fill-opacity:1;fill-rule:nonzero;stroke:none"
             d="m 0,0 0,-2.064 -2.89,0 0,-10.356 -2.597,0 0,10.356 -2.89,0 0,2.064 L 0,0 Z" /></g><g
           transform="translate(148.5819,773.759)"
           id="g3410"><path
             id="path3412"
             style="fill:#231f20;fill-opacity:1;fill-rule:nonzero;stroke:none"
             d="m 0,0 0,12.42 6.451,0 0,-1.91 -3.854,0 0,-3.182 3.681,0 0,-1.909 -3.681,0 L 2.597,0 0,0 Z" /></g><g
           transform="translate(160.8799,783.7875)"
           id="g3414"><path
             id="path3416"
             style="fill:#231f20;fill-opacity:1;fill-rule:nonzero;stroke:none"
             d="m 0,0 -0.034,0 -1.187,-5.367 2.477,0 L 0,0 Z m -5.006,-10.029 3.441,12.42 3.423,0 3.371,-12.42 -2.735,0 -0.688,2.753 -3.543,0 -0.706,-2.753 -2.563,0 z" /></g><g
           transform="translate(168.2068,773.759)"
           id="g3418"><path
             id="path3420"
             style="fill:#231f20;fill-opacity:1;fill-rule:nonzero;stroke:none"
             d="m 0,0 0,12.42 2.597,0 0,-10.356 3.888,0 L 6.485,0 0,0 Z" /></g><g
           transform="translate(176.686,773.759)"
           id="g3422"><path
             id="path3424"
             style="fill:#231f20;fill-opacity:1;fill-rule:nonzero;stroke:none"
             d="m 0,0 0,12.42 6.778,0 0,-1.91 -4.181,0 0,-3.062 3.854,0 0,-1.909 -3.854,0 0,-3.63 4.318,0 L 6.915,0 0,0 Z" /></g></g></g><g
       transform="matrix(8,0,0,8,-277.879,-5321.435)"
       id="g3426"><g
         clip-path="url(#clipPath3430)"
         id="g3428"><g
           transform="translate(186.1634,773.759)"
           id="g3434"><path
             id="path3436"
             style="fill:#231f20;fill-opacity:1;fill-rule:nonzero;stroke:none"
             d="m 0,0 0,12.42 3.509,0 3.303,-8.601 0.034,0 0,8.601 2.426,0 L 9.272,0 5.848,0 2.46,9.083 2.425,9.083 2.425,0 0,0 Z" /></g><g
           transform="translate(55.0554,793.2188)"
           id="g3438"><path
             id="path3440"
             style="fill:#80cc28;fill-opacity:1;fill-rule:nonzero;stroke:none"
             d="M 0,0 5.543,5.447 C 5.175,5.686 4.797,5.9 4.412,6.1 L -1.527,0.263 C -1.011,0.237 -0.498,0.152 0,0 m 3.206,6.647 c -4.842,1.936 -10.571,0.99 -14.53,-2.9 -5.19,-5.101 -5.389,-13.339 -0.586,-18.706 l -0.01,-0.01 0.137,-0.139 c 0.028,-0.03 7.875,-8.014 7.875,-8.014 l 5.241,5.15 -7.881,8.019 c -2.097,2.467 -1.978,6.162 0.367,8.466 0.772,0.759 1.692,1.258 2.663,1.526 l 6.724,6.608 z m -1.007,-25.5 -5.241,-5.15 0.882,-0.898 5.241,5.15 -0.882,0.898 z" /></g></g></g><g
       transform="matrix(8,0,0,8,-277.879,-5321.435)"
       id="g3442"><g
         clip-path="url(#clipPath3446)"
         id="g3444"><g
           transform="translate(88.2878,798.43)"
           id="g3450"><path
             id="path3452"
             style="fill:#1082ce;fill-opacity:1;fill-rule:nonzero;stroke:none"
             d="m 0,0 -5.444,-5.35 c 0.406,-0.164 0.803,-0.358 1.173,-0.611 l 5.274,5.183 C 0.678,-0.501 0.344,-0.242 0,0" /></g><g
           transform="translate(62.6294,797.0983)"
           id="g3454"><path
             id="path3456"
             style="fill:#1082ce;fill-opacity:1;fill-rule:nonzero;stroke:none"
             d="M 0,0 -0.018,-0.018 C -0.122,0.08 -0.234,0.165 -0.34,0.26 l -5.259,-5.169 c 0.139,-0.108 0.288,-0.196 0.42,-0.317 l 0.019,0.019 c 0.18,-0.173 0.372,-0.324 0.559,-0.485 l 5.275,5.184 C 0.444,-0.349 0.211,-0.194 0,0" /></g></g></g><g
       transform="matrix(8,0,0,8,-277.879,-5321.435)"
       id="g3458"><g
         clip-path="url(#clipPath3462)"
         id="g3460"><g
           transform="translate(71.2053,797.2386)"
           id="g3466"><path
             id="path3468"
             style="fill:#1082ce;fill-opacity:1;fill-rule:nonzero;stroke:none"
             d="M 0,0 C 0,0 -0.001,-0.001 -0.001,-0.001" /></g><g
           transform="translate(71.2042,797.2374)"
           id="g3470"><path
             id="path3472"
             style="fill:#1082ce;fill-opacity:1;fill-rule:nonzero;stroke:none"
             d="m 0,0 c -1.848,-1.814 -4.53,-2.221 -6.775,-1.274 l -5.419,-5.325 c 5.257,-3.736 12.578,-3.312 17.338,1.367 L 5.143,-5.233 c 1.438,1.276 3.317,1.754 5.1,1.475 l 5.748,5.649 C 10.941,4.774 4.429,4.153 0,0" /></g><g
           transform="translate(92.2454,794.088)"
           id="g3474"><path
             id="path3476"
             style="fill:#33bdf2;fill-opacity:1;fill-rule:nonzero;stroke:none"
             d="m 0,0 -5.673,-5.575 c 0.358,-1.839 -0.099,-3.8 -1.415,-5.291 l -0.024,0.025 -14.289,-14.041 c -2.382,-2.231 -6.069,-2.243 -8.458,-0.047 l -1.017,1.019 -5.241,-5.15 1.024,-1.012 c 5.194,-5.043 13.434,-5.114 18.714,-0.161 l 0.008,-0.008 14.319,14.071 0.031,-0.032 C 2.279,-11.774 2.96,-5.134 0,0 m -6.086,-4.248 5.405,5.312 c -0.242,0.341 -0.501,0.675 -0.778,0.998 l -5.265,-5.173 c 0.261,-0.358 0.464,-0.743 0.638,-1.137 m -26.539,-17.883 -5.24,-5.15 0.882,-0.897 5.241,5.149 -0.883,0.898 z" /></g></g></g></g></svg>